<?xml version="1.0" encoding="UTF-8"?>
<svg id="Calque_1" xmlns="http://www.w3.org/2000/svg" version="1.1" viewBox="0 0 1563 584.17">
  <!-- Generator: Adobe Illustrator 29.6.1, SVG Export Plug-In . SVG Version: 2.1.1 Build 9)  -->
  <defs>
    <style>
      .st0 {
        fill: #e8d20c;
      }

      .st1 {
        fill: #0f4c2b;
      }
    </style>
  </defs>
  <rect class="st1" y="-1.58" width="1563" height="587.32"/>
  <g>
    <path class="st0" d="M857.68,198.87l28.73,60.77c5.07,3.77,7.6-4.87,9.44-8.71,5.13-10.74,8.89-22.27,13.96-33.04,6.21-13.16,7.4-22.09,23.64-23.36,9.27-.72,41.76-1.09,49.11,1.96s6.26,11.95,5.29,18.44c-1.47,9.83-5.7,19.49-7.57,29.43-7.77,41.21-2.22,69.6,6.41,109,2.95,13.46,4.84,24.51-12.21,26.19-9.33.92-42.64,1.11-50.51-1.47s-7.42-8.96-6.96-16c.9-13.98,6.6-30.12,7.97-45.02.86-9.37.58-20.01,1-29.49-1.91.98-3.08,3.53-4.16,5.33-4.57,7.66-30.35,56.56-33.85,58.17-5.06,2.32-7.45-1.63-9.78-5.2-10.08-15.43-16.98-36.41-27.01-51.99-.81-1.25-1.63-2.89-3.18-3.3.53,10.08.76,20.34,2.13,30.36,1.82,13.28,11.48,38.02,9.79,49.08-1.19,7.76-8.75,9.08-15.39,9.6-7.97.62-32.62.97-38.93-2.14-2.54-1.25-5.02-3.52-5.56-6.44-2-11,5.36-27.91,7.64-39.26,5.17-25.81,5.18-63.56,0-89.37-2.06-10.26-13.46-37.44-4.05-44.68,5.51-4.24,32.13-3.74,39.85-3.12,4.94.39,10.35,1.12,14.21,4.29Z"/>
    <path class="st0" d="M303.99,251.57c.25-13.75-1.57-27.49-4.67-40.83-3.77-16.2-18.41-41.95,8.14-44.21,22.98-1.96,61.81-1.53,85.08-.01,29.07,1.89,48.45,21.72,45.44,51.54-1.2,11.92-8.41,23.22-18.69,29.31-4.01,2.37-12.38,4.28-14.68,6.12-.86.69-.91,1.71-.64,2.58.26.82,13,6.27,15.32,7.7,41.99,25.74,22.56,94.82-29.77,98.84-28.7,2.21-60.6-1.36-89.6-.47-7.04-2.08-8.26-8.48-7.97-15.11.68-15.46,8.94-34.47,10.91-51.08,1.28-10.75,1.22-21.56,1.12-32.38h63.5c2.42,0,3.79-7.37,2.22-9.72-.11-.16-3.02-2.28-3.22-2.28h-62.5ZM411.75,231.34c2.79-5.39.97-10.05-5.24-10.78-21.56-2.55-47.95,1.95-70.04,0-8.6.58-8.63,11.45,0,12.04,22.68-1.49,47.67,1.91,70.06.02,1.82-.15,3.66-.15,5.22-1.28ZM411.75,293.34c4.03-4.04-1.02-11.01-6.24-10.79-21.75,1.68-46.66-2.18-68.02.03-10.34,1.07-9.13,11.11-2.05,12.05,23.02-1.57,48.37,1.91,71.09,0,1.55-.13,4.11-.17,5.22-1.28Z"/>
    <path class="st0" d="M665,293.57c1.37.3,1.08-1.04,1.47-1.99,4.37-10.54,9.75-27.13,8.41-38.39-1.09-9.2-8.62-20.31,5.12-25.1,6.21-2.17,36.38-2.53,43.26-1.28,8.04,1.46,10.3,6.8,9.77,14.31-.68,9.71-18.99,35.96-24.56,46.44-17.29,32.54-27.1,61.36-39.46,95.54-9.86,27.23-31.94,49.12-63.22,42.19-21.06-4.67-28.68-29.83-19.51-47.91,11.77-23.19,35.03,8.71,53.22-3.78,10.52-7.23,2.15-12.9-1.68-21.33-8.5-18.71-13.65-38.13-23.3-56.7-6.49-12.5-26.92-39.19-28.44-50.56-1.43-10.71.74-17.36,12.38-18.45,9.61-.9,44.52-1.1,52.56,1.52,13.28,4.34,6.14,15.67,5.07,24.1-1.88,14.71,4.49,27.88,8.93,41.41Z"/>
    <path class="st0" d="M519,352.58c-1.82,5.71-14.36,10.54-19.96,11.55-30.06,5.41-53.4-8.54-55.09-40.01-.88-16.46,6.11-30.79,6.11-46.04,0-16-17.26-48.72,7.43-51.5,6.32-.71,22.7-.75,28.91.09,20.87,2.84,17.89,41.31,15.29,56.12-2.06,11.73-8.71,24.54-7.74,36.34,1.13,13.7,12.35,13.06,18.22,2.14s7.41-30.51,6.81-43.17-5.19-27.43-4.9-38.91c.19-7.46,5.32-11.84,12.41-12.6,9.75-1.04,30.13-.88,40.04-.03,8.62.74,15.82,3.37,15.38,13.37-.53,12.12-8.57,28.28-10.62,41.45s-2.07,25.25,1.22,38.2c2.76,10.89,19.8,40.1-.1,42.92-7.88,1.12-30.82,1-38.91.09-7.49-.84-9.89-4.93-14.48-10Z"/>
    <path class="st0" d="M269.03,369.53c12.13-.03,24.02,5.5,31.98,14.52,2.22,2.51,6.12,10.23,8.5,10.58l74.99-12.03c11.28-2.48,18.32,8.69,9.77,17.02l-82.23,14.02c-1.4,34.36-38.76,54.7-67.97,35.36-22.49-14.89-25.68-47.87-6.73-67.06,2.68-2.72,8.57-4.69,8.69-8.8l-41.19-199.91-21.84-29.22c-12.24,5.87-17.5,1.11-25.53-7.41-9.25-9.81-16.98-20.49-7.48-33.51,5.95-8.15,15.14-12.34,25.01-8.01,3.61,1.58,21.22,17.19,23.44,20.55,5.02,7.59-1.26,11.4,0,13.93l28.07,31.01,42.52,208.97ZM289.63,435.22c30.29-28.65-16.57-71.26-45.04-42.54-28.8,29.07,16.74,69.3,45.04,42.54Z"/>
    <path class="st0" d="M1314.49,339.57l-1.54,2.51c4.16,7.75,18.55,6.04,25.74,3.69,10.06-3.3,19.04-14.5,30.23-6.62,6.8,4.78,9.65,15.81,6.57,23.42-7.2,17.76-46.83,20.34-62.99,18-83.56-12.11-73.7-140.76,20.72-130.72,50.84,5.41,56.03,62.55,13.79,83.72l-6.01-14.99,18.3-2.21c1.74-.5,3.51-3.03,2.56-4.67-.31-.54-8.39-6.23-9.87-7.61-13.46-12.55-26.85-25.24-40.65-37.37l-2.88.82,3.55,70.03c4.87,2.4,15.48-14.81,17.98-13l5.99,12.5c-.05.69-4.83,2.49-5.48,2.49h-16Z"/>
    <path class="st0" d="M1181,263.57c5.76-2.59,10.45-6.65,16.32-9.17,15.3-6.58,32.93-7.88,45.1,5.25,11.03,11.89,11.91,41.94-2.74,51.12-8.06,5.05-25.64,7.16-31.69-1.69-4.28-6.26-4.31-27.86-18.35-17.36-9.04,6.76-7.42,37.57-4.93,47.64,3.21,12.95,21.28,37.75-3.23,40.21-11.21,1.12-33.7,1.02-45.02.05-26.79-2.29-6.66-28.43-3.74-42.81,2.67-13.15,1.38-29.13-2.44-42.01-3.5-11.81-16.95-27.63-.56-35,5.37-2.42,33.63-10.33,38.8-10.3,7.99.04,11.76,6.91,12.49,14.08Z"/>
    <path class="st0" d="M1047.78,249.87c49.37-4.85,74.92,32.91,68.09,79.09-5.9,39.85-38.4,59.27-77.08,50.32-60.55-14.01-58.96-122.73,8.99-129.41ZM1034.34,342.22c34.5,34.51,86.06-17.83,53.04-51.54-34.77-35.5-87.06,17.52-53.04,51.54Z"/>
    <path class="st0" d="M787.49,456.57c6.32,1.35,7.3,11.12,1.53,14.54l-.02,1.44c6.28,1.22,8.28,10.9,3.53,15.05-.97.85-6.11,2.97-7.03,2.97h-15.5v-34c5.1.74,12.79-1,17.5,0ZM787.75,469.34c1.67-1.67,1.92-7.21-.17-8.86-2.62-2.07-10.09-.36-13.6-.91v11.01c3.28-.4,11.51,1.02,13.77-1.24ZM773.99,487.57c7.06-.41,17.53,2.67,17.09-7.52-.39-9.09-10.62-6-17.09-6.48v14Z"/>
    <path class="st0" d="M478.65,459.91c7.99,8,5.4,28.75-7.25,30.56-14.79,2.12-20.87-9.98-18.19-23.18,2.26-11.12,17.52-15.31,25.43-7.39ZM463.7,459.79c-8.08,1.83-8.54,17.84-4.71,23.28,6.18,8.8,18.74,4.82,20-6,1.3-11.15-2.37-20.21-15.29-17.28Z"/>
    <path class="st0" d="M530.65,459.91c7.38,7.41,5.81,27.47-5.59,30.23-15.46,3.74-21.97-8.15-19.98-21.98,1.72-11.99,17.68-16.18,25.57-8.25ZM512.3,485.26c7.05,6.23,17.59,1.24,18.69-8.19,1.32-11.28-2.19-20.26-15.29-17.28-8.51,1.93-8.9,20.62-3.4,25.47Z"/>
    <polygon class="st0" points="406.99 456.57 406.99 470.57 424.99 470.57 424.99 456.57 428.99 456.57 428.99 490.57 424.99 490.57 424.99 473.57 406.99 473.57 406.99 490.57 402.99 490.57 402.99 456.57 406.99 456.57"/>
    <path class="st0" d="M1129.99,456.57v15c6.65-3.95,11.06-14.51,19-14.99l-13.89,15.63,14.9,17.85c-5.4,1.75-10.16-6.66-13.36-10.14l-6.65-5.35v16h-4v-34h4Z"/>
    <path class="st0" d="M1092.82,456.75l12.16,33.82c-6.58,1.38-5.26-6.3-7.61-10.05l-13.75.2-3.75,9.75-3.88.11,11.09-33.89,5.74.07ZM1090.97,460.58c-2.55-.41-1.55.23-2.08,1.4-2.03,4.49-3.14,10.82-4.9,15.59h11.99s-5.01-16.99-5.01-16.99Z"/>
    <polygon class="st0" points="622.99 456.57 622.99 459.57 605.99 459.57 605.99 471.57 620.99 471.57 620.99 474.57 605.99 474.57 605.99 487.57 623.99 487.57 623.99 490.57 601.99 490.57 601.99 456.57 622.99 456.57"/>
    <polygon class="st0" points="1190.99 456.57 1190.99 459.57 1173.99 459.57 1173.99 471.57 1188.99 471.57 1188.99 474.57 1173.99 474.57 1173.99 487.57 1191.99 487.57 1191.99 490.57 1169.99 490.57 1169.99 456.57 1190.99 456.57"/>
    <path class="st0" d="M821.99,456.57v25.5c0,7.41,18,7.38,18-2v-23.5h3v26.5c0,7.65-16.26,10.32-21.55,4.55-.91-1-3.45-5.64-3.45-6.55v-24.5h4Z"/>
    <path class="st0" d="M576.98,462.57c-2.38.07-3.19-2.18-5.42-3.07-7.91-3.17-16.59,5.08-7.93,9.94,6.54,3.67,16.54,1.48,16.24,12.68-.22,8.39-11.3,9.64-17.7,7.79-3.08-.89-8.86-4.2-4.66-7.32,1.64-.35,3.78,3.44,5.74,4.24,6.22,2.54,15.36-.28,12-7.98-3.11-7.11-18.98-2.15-18.36-14.79.49-9.89,14.95-10.06,20.64-4.5l-.55,3.02Z"/>
    <path class="st0" d="M378.01,464.57c-2.8-8.35-17.33-6.46-19.54,1.98-4.35,16.59,9.13,30.29,20.52,14.46l3.01.58c-2.06,5.66-5.32,8.62-11.46,9.05-25.34,1.77-20.84-42.53,4.69-33.78,8.13,2.78,5.34,9.68,2.79,7.72Z"/>
    <path class="st0" d="M875.99,476.07c-2.43-4.47-9.72-13.74-10.99-18.02-.7-2.38,2.65-1.55,3.82-1.31l8.67,15.83c2.1.46,1.35-.92,1.97-1.98,1.53-2.6,5.75-11.77,7.01-13.03,1.33-1.33,2.87-1.03,4.51-.98.9.66-11,18.23-11,19.49v14.5h-4v-14.5Z"/>
    <polygon class="st0" points="1290.99 456.57 1290.99 459.57 1279.99 459.57 1279.99 490.57 1275.99 490.57 1275.99 459.57 1264.98 459.56 1264.99 456.57 1290.99 456.57"/>
    <polygon class="st0" points="988.99 456.57 988.99 459.57 977.99 459.57 977.99 490.57 973.99 490.57 973.99 459.57 964.66 459.4 962.99 456.57 988.99 456.57"/>
    <polygon class="st0" points="1057.99 456.57 1057.99 459.57 1046.99 459.57 1046.99 490.57 1042.99 490.57 1042.99 459.57 1031.99 459.56 1032.99 456.57 1057.99 456.57"/>
    <polygon class="st0" points="722.99 456.57 722.99 459.57 711.99 459.57 711.99 490.57 707.99 490.57 707.99 459.57 697.98 459.57 697.99 456.57 722.99 456.57"/>
    <rect class="st0" x="937.99" y="456.57" width="4" height="34"/>
    <rect class="st0" x="1239.99" y="456.57" width="4" height="34"/>
    <rect class="st0" x="671.99" y="456.57" width="4" height="34"/>
    <path class="st0" d="M261.72,398.81c30.33-5.59,31.01,36.45,2.76,33.77-20.09-1.91-20.72-30.46-2.76-33.77Z"/>
    <path class="st0" d="M1044.35,332.22c-20.9-20.9,11.09-52.94,32.14-32.64,21.74,20.97-10.44,54.33-32.14,32.64Z"/>
  </g>
</svg>